<?xml version="1.0" encoding="utf-8"?>
<!-- Generator: Adobe Illustrator 25.0.0, SVG Export Plug-In . SVG Version: 6.00 Build 0)  -->
<svg version="1.1" id="Camada_1" xmlns="http://www.w3.org/2000/svg" xmlns:xlink="http://www.w3.org/1999/xlink" x="0px" y="0px"
	 viewBox="0 0 24 24" style="enable-background:new 0 0 24 24;" xml:space="preserve">
<style type="text/css">
	.st0{fill:none;}
	.st1{fill:#3C6BFD;}
</style>
<path class="st0" d="M0,0h24v24H0V0z"/>
<g>
	<path class="st1" d="M6.2,20.1c-2.6,0-4.7-2.1-4.7-4.7s2.1-4.7,4.7-4.7s4.7,2.1,4.7,4.7S8.7,20.1,6.2,20.1z M6.2,18.6
		c1.7,0,3.1-1.4,3.1-3.1s-1.4-3.1-3.1-3.1s-3.1,1.4-3.1,3.1S4.5,18.6,6.2,18.6z"/>
	<rect x="9.6" y="14.9" class="st1" width="4.8" height="1.2"/>
	
		<rect x="-3.8" y="9.1" transform="matrix(-1.836970e-16 1 -1 -1.836970e-16 11.75 7.5833)" class="st1" width="11.7" height="1.2"/>
	
		<rect x="16.1" y="9.1" transform="matrix(-1.836970e-16 1 -1 -1.836970e-16 31.5833 -12.25)" class="st1" width="11.7" height="1.2"/>
	<path class="st1" d="M17.8,20.2c-2.6,0-4.7-2.1-4.7-4.7s2.1-4.7,4.7-4.7s4.7,2.1,4.7,4.7S20.4,20.2,17.8,20.2z M17.8,18.6
		c1.7,0,3.1-1.4,3.1-3.1s-1.4-3.1-3.1-3.1s-3.1,1.4-3.1,3.1S16.1,18.6,17.8,18.6z"/>
</g>
</svg>
