<?xml version="1.0" encoding="utf-8"?>
<!-- Generator: Adobe Illustrator 25.0.0, SVG Export Plug-In . SVG Version: 6.00 Build 0)  -->
<svg version="1.1" id="Camada_1" xmlns="http://www.w3.org/2000/svg" xmlns:xlink="http://www.w3.org/1999/xlink" x="0px" y="0px"
	 viewBox="0 0 16 16" style="enable-background:new 0 0 16 16;" xml:space="preserve">
<path d="M8,3.8L7.4,3.2c-1.5-1.5-4.2-1-5.1,0.9C1.8,5,1.7,6.3,2.5,7.9C3.3,9.5,5,11.4,8,13.5c3-2.1,4.7-4,5.5-5.6
	c0.8-1.7,0.7-2.9,0.3-3.8c-1-1.9-3.7-2.4-5.1-0.9L8,3.8z M8,14.6C-5.4,5.7,3.9-1.2,7.8,2.4C7.9,2.5,8,2.5,8,2.6
	c0-0.1,0.1-0.1,0.2-0.1C12.1-1.2,21.4,5.7,8,14.6z"/>
</svg>
