<svg xmlns="http://www.w3.org/2000/svg" viewBox="0 0 871.47 205.33"><defs><style>.cls-1{fill:#3d6bfd;}.cls-2{fill:#000f3d;}</style></defs><g id="Camada_2" data-name="Camada 2"><g id="Camada_3" data-name="Camada 3"><path class="cls-1" d="M280.48,42.59V25.93L260.2,21.78,252,1,230.78,13.44H211.41a40.82,40.82,0,0,0-60.55,0h-98A52.89,52.89,0,0,0,0,66.32V199.57H24.39l28.45-82h93.55l19.89,82h26.84L215.44,84.23l81.3-4.16,8.13-25Z"/><polygon class="cls-2" points="67.41 134.2 57.17 163.72 64.97 199.57 105.61 199.57 101.83 163.74 119.36 134.2 67.41 134.2"/><polygon class="cls-2" points="216.62 184.4 232.47 200 269.85 200 228.72 122.14 216.62 184.4"/><path class="cls-2" d="M315.4,137.07,370.79,12.79H399.2l55.57,124.28H424.59L379.14,27.35H390.5L344.87,137.07Zm27.7-26.63,7.63-21.84h63.92l7.81,21.84Z"/><path class="cls-2" d="M465.78,137.07V5.33h27.7V60.9L491.7,89.13l.53,28.41v19.53Zm56.46,1.42q-12.61,0-21.66-5.33t-13.85-16.24q-4.8-10.92-4.79-27.61,0-16.87,5.06-27.7t14.11-16.15a40.83,40.83,0,0,1,21.13-5.33,48.54,48.54,0,0,1,24.23,6,44.51,44.51,0,0,1,17,17q6.3,11,6.3,26.1,0,14.91-6.3,25.92a45.17,45.17,0,0,1-17,17.13A48,48,0,0,1,522.24,138.49Zm-4.8-22.73a23.81,23.81,0,0,0,12.34-3.19,23.55,23.55,0,0,0,8.7-9.15,28.74,28.74,0,0,0,3.29-14.11,28.62,28.62,0,0,0-3.29-14.2,23.22,23.22,0,0,0-21-12.26A24.26,24.26,0,0,0,505,66.05a22.88,22.88,0,0,0-8.7,9.06,29.27,29.27,0,0,0-3.2,14.2,29.4,29.4,0,0,0,3.2,14.11,22.73,22.73,0,0,0,8.7,9.15A24.26,24.26,0,0,0,517.44,115.76Z"/><path class="cls-2" d="M588.28,137.07V41.55h26.46v27L611,60.72a30.66,30.66,0,0,1,13.67-15.35q9.41-5.23,22.9-5.24V65.7c-1.18-.12-2.25-.21-3.19-.27s-2-.09-3-.09Q630,65.34,623,71.82T616,92v45.1Z"/><path class="cls-2" d="M710.61,138.49q-16.33,0-28.67-6.39a47.11,47.11,0,0,1-19.09-17.49,47.7,47.7,0,0,1-6.74-25.3,48.55,48.55,0,0,1,6.66-25.48A47.11,47.11,0,0,1,681,46.43a57,57,0,0,1,51.4-.35,44.47,44.47,0,0,1,17.85,17q6.56,11.1,6.57,26.54c0,1.07-.07,2.28-.18,3.64s-.24,2.64-.36,3.82H678.66V81h63L731,85.76a26.57,26.57,0,0,0-3-13,22,22,0,0,0-8.34-8.61,24.25,24.25,0,0,0-12.43-3.11,24.74,24.74,0,0,0-12.52,3.11,21.66,21.66,0,0,0-8.43,8.7,27.46,27.46,0,0,0-3,13.22v4.26a26.91,26.91,0,0,0,3.46,13.76,22.6,22.6,0,0,0,9.77,9.06,33.16,33.16,0,0,0,14.82,3.11A35.94,35.94,0,0,0,724.73,114a32.64,32.64,0,0,0,10.56-6.93L750,123a42.89,42.89,0,0,1-16.51,11.45A61,61,0,0,1,710.61,138.49Z"/><path class="cls-2" d="M815.54,138.49a47.11,47.11,0,0,1-21.21-4.62,32.6,32.6,0,0,1-14.47-14.11q-5.16-9.49-5.15-24.24v-54H802.4V91.44q0,11.9,5.07,17.49t14.29,5.59a23.12,23.12,0,0,0,11.36-2.75,19,19,0,0,0,7.81-8.52q2.84-5.77,2.84-14.47V41.55h27.7v95.52H845.19V110.79l4.8,7.64a32.73,32.73,0,0,1-14.12,15A42,42,0,0,1,815.54,138.49Z"/><path class="cls-2" d="M388.63,187.28v17.44h-5.88V160.17h16.43q7.32,0,11.46,3.73a12.67,12.67,0,0,1,4.15,9.88q0,6.5-4.06,10t-11.61,3.51Zm0-4.81h10.55q4.71,0,7.22-2.22a8.13,8.13,0,0,0,2.51-6.42,8.42,8.42,0,0,0-2.51-6.38,9.88,9.88,0,0,0-6.88-2.48H388.63Z"/><path class="cls-2" d="M444.89,186.7H434.42v18h-5.9V160.17h14.75q7.51,0,11.58,3.43t4,10a12,12,0,0,1-2.25,7.25,13.42,13.42,0,0,1-6.25,4.62l10.46,18.91v.37h-6.3Zm-10.47-4.81h9a10.13,10.13,0,0,0,7-2.27,7.68,7.68,0,0,0,2.59-6.07,8.09,8.09,0,0,0-2.47-6.34q-2.46-2.21-7.11-2.24h-9Z"/><path class="cls-2" d="M507.67,183.88a27.55,27.55,0,0,1-2.21,11.43,16.58,16.58,0,0,1-6.24,7.45,17.18,17.18,0,0,1-9.42,2.57,16.64,16.64,0,0,1-15.65-10,26.41,26.41,0,0,1-2.31-11.09v-3.21a27.25,27.25,0,0,1,2.23-11.36,16.51,16.51,0,0,1,15.67-10.15,17.32,17.32,0,0,1,9.44,2.58,16.57,16.57,0,0,1,6.28,7.5,27.65,27.65,0,0,1,2.21,11.43ZM501.82,181q0-7.94-3.18-12.17a10.5,10.5,0,0,0-8.9-4.23,10.39,10.39,0,0,0-8.77,4.23q-3.2,4.24-3.29,11.77v3.27q0,7.68,3.23,12.07a11.32,11.32,0,0,0,17.7.25q3.12-4.15,3.21-11.89Z"/><path class="cls-2" d="M530.33,160.17l14.57,36.35,14.56-36.35h7.62v44.55h-5.87V187.37l.55-18.73-14.63,36.08h-4.5l-14.59-36,.58,18.63v17.35h-5.87V160.17Z"/><path class="cls-2" d="M618,183.88a27.71,27.71,0,0,1-2.2,11.43,16.66,16.66,0,0,1-6.25,7.45,17.18,17.18,0,0,1-9.42,2.57,16.64,16.64,0,0,1-15.65-10,26.41,26.41,0,0,1-2.31-11.09v-3.21a27.25,27.25,0,0,1,2.23-11.36,16.51,16.51,0,0,1,15.67-10.15,17.29,17.29,0,0,1,9.44,2.58,16.65,16.65,0,0,1,6.29,7.5,27.81,27.81,0,0,1,2.2,11.43ZM612.14,181q0-7.94-3.18-12.17a11.34,11.34,0,0,0-17.67,0q-3.19,4.24-3.29,11.77v3.27q0,7.68,3.23,12.07a11.32,11.32,0,0,0,17.7.25q3.12-4.15,3.21-11.89Z"/><path class="cls-2" d="M663,165H648.7v39.75h-5.84V165H628.57v-4.8H663Z"/><path class="cls-2" d="M709.31,183.88a27.55,27.55,0,0,1-2.2,11.43,16.66,16.66,0,0,1-6.25,7.45,17.18,17.18,0,0,1-9.42,2.57,16.64,16.64,0,0,1-15.65-10,26.41,26.41,0,0,1-2.31-11.09v-3.21a27.25,27.25,0,0,1,2.23-11.36,16.51,16.51,0,0,1,15.67-10.15,17.29,17.29,0,0,1,9.44,2.58,16.65,16.65,0,0,1,6.29,7.5,27.65,27.65,0,0,1,2.2,11.43ZM703.47,181q0-7.94-3.19-12.17a11.34,11.34,0,0,0-17.67,0q-3.2,4.24-3.29,11.77v3.27q0,7.68,3.23,12.07a11.32,11.32,0,0,0,17.7.25q3.12-4.15,3.22-11.89Z"/><path class="cls-2" d="M740.73,186.7H730.26v18h-5.9V160.17h14.75q7.51,0,11.58,3.43t4,10a12,12,0,0,1-2.25,7.25,13.4,13.4,0,0,1-6.26,4.62l10.47,18.91v.37h-6.3Zm-10.47-4.81h9a10.13,10.13,0,0,0,7-2.27,7.68,7.68,0,0,0,2.59-6.07,8.09,8.09,0,0,0-2.47-6.34q-2.46-2.21-7.11-2.24h-9Z"/><path class="cls-2" d="M793.84,193.06H775.17L771,204.72h-6.06l17-44.55h5.14l17,44.55h-6ZM777,188.26h15.14l-7.58-20.84Z"/></g></g></svg>