<?xml version="1.0" encoding="utf-8"?>
<!-- Generator: Adobe Illustrator 25.0.0, SVG Export Plug-In . SVG Version: 6.00 Build 0)  -->
<svg version="1.1" id="Camada_1" xmlns="http://www.w3.org/2000/svg" xmlns:xlink="http://www.w3.org/1999/xlink" x="0px" y="0px"
	 viewBox="0 0 24 24" style="enable-background:new 0 0 24 24;" xml:space="preserve">
<style type="text/css">
	.st0{fill:none;}
	.st1{fill:#3C6BFD;}
</style>
<path class="st0" d="M0,0h24v24H0V0z"/>
<path class="st1" d="M17.6,16.7v4.7h-1.9v-4.7c0-4.1,2.5-7.7,6-9.3L22.5,9C19.5,10.4,17.6,13.4,17.6,16.7z M8.3,16.7v4.7H6.4v-4.7
	c0-3.3-1.9-6.3-4.9-7.6l0.8-1.7C5.9,9,8.3,12.6,8.3,16.7z M12,12c-2.6,0-4.7-2.1-4.7-4.7S9.4,2.7,12,2.7s4.7,2.1,4.7,4.7
	S14.6,12,12,12z M12,10.1c1.5,0,2.8-1.3,2.8-2.8S13.5,4.5,12,4.5S9.2,5.8,9.2,7.3S10.5,10.1,12,10.1z"/>
</svg>
