<?xml version="1.0" encoding="utf-8"?>
<!-- Generator: Adobe Illustrator 25.0.0, SVG Export Plug-In . SVG Version: 6.00 Build 0)  -->
<svg version="1.1" id="Camada_1" xmlns="http://www.w3.org/2000/svg" xmlns:xlink="http://www.w3.org/1999/xlink" x="0px" y="0px"
	 viewBox="0 0 24 24" style="enable-background:new 0 0 24 24;" xml:space="preserve">
<style type="text/css">
	.st0{fill:none;}
	.st1{fill:#3C6BFD;}
</style>
<path class="st0" d="M0,0h24v24H0V0z"/>
<path class="st1" d="M6.7,9.4c1.5,0,2.6-1.2,2.6-2.6S8.2,4.1,6.7,4.1S4.1,5.3,4.1,6.7S5.3,9.4,6.7,9.4z M6.7,11.5
	C4.1,11.5,2,9.4,2,6.7S4.1,2,6.7,2s4.7,2.1,4.7,4.7S9.4,11.5,6.7,11.5L6.7,11.5z M17.8,13.6c1.2,0,2.1-0.9,2.1-2.1S19,9.4,17.8,9.4
	c-1.2,0-2.1,0.9-2.1,2.1S16.6,13.6,17.8,13.6z M17.8,15.7c-2.3,0-4.2-1.9-4.2-4.2s1.9-4.2,4.2-4.2S22,9.1,22,11.5
	S20.1,15.7,17.8,15.7z M20.4,22v-0.5c0-1.5-1.2-2.6-2.6-2.6c-1.5,0-2.6,1.2-2.6,2.6V22h-2.1v-0.5c0-2.6,2.1-4.7,4.7-4.7
	s4.7,2.1,4.7,4.7V22H20.4z M9.9,22v-4.2c0-1.7-1.4-3.2-3.2-3.2S3.6,16,3.6,17.8V22H1.5v-4.2c0-2.9,2.4-5.3,5.3-5.3s5.3,2.4,5.3,5.3
	V22H9.9z"/>
</svg>
