<?xml version="1.0" encoding="utf-8"?>
<!-- Generator: Adobe Illustrator 25.0.0, SVG Export Plug-In . SVG Version: 6.00 Build 0)  -->
<svg version="1.1" id="Camada_1" xmlns="http://www.w3.org/2000/svg" xmlns:xlink="http://www.w3.org/1999/xlink" x="0px" y="0px"
	 viewBox="0 0 16 16" style="enable-background:new 0 0 16 16;" xml:space="preserve">
<style type="text/css">
	.st0{fill-rule:evenodd;clip-rule:evenodd;}
</style>
<path d="M7.1,6.2h1.8V8h1.8v1.8H8.9v1.8H7.1V9.8H5.4V8h1.8V6.2z"/>
<path class="st0" d="M2.8,1.9C2.8,1.4,3.1,1,3.6,1h8.8c0.5,0,0.9,0.4,0.9,0.9v1.8c0,0.5-0.4,0.9-0.9,0.9v9.2c0,0.7-0.6,1.3-1.3,1.3
	l0,0H4.9c-0.7,0-1.3-0.6-1.3-1.3l0,0V4.5c-0.5,0-0.9-0.4-0.9-0.9V1.9z M4.5,4.5h7v9.2c0,0.2-0.2,0.4-0.4,0.4H4.9
	c-0.2,0-0.4-0.2-0.4-0.4V4.5z M3.6,3.6V1.9h8.8v1.8H3.6z"/>
</svg>
