<?xml version="1.0" encoding="utf-8"?>
<!-- Generator: Adobe Illustrator 25.0.0, SVG Export Plug-In . SVG Version: 6.00 Build 0)  -->
<svg version="1.1" id="Camada_1" xmlns="http://www.w3.org/2000/svg" xmlns:xlink="http://www.w3.org/1999/xlink" x="0px" y="0px"
	 viewBox="0 0 16 16" style="enable-background:new 0 0 16 16;" xml:space="preserve">
<style type="text/css">
	.st0{fill-rule:evenodd;clip-rule:evenodd;}
</style>
<path class="st0" d="M8,14.1C8,14.1,8.1,14.1,8,14.1c0.2,0,0.2-0.1,0.3-0.1c0.2-0.1,0.5-0.3,0.8-0.5c0.8-0.5,1.4-1.2,2-2
	c1.3-1.7,2.5-4.4,2-8c0-0.2-0.1-0.3-0.3-0.3c-0.6-0.2-1.5-0.5-2.5-0.7C9.4,2.1,8.5,1.9,8,1.9C8,1.9,8,14.1,8,14.1z M5.4,1.5
	C6.4,1.2,7.4,1,8,1c0.6,0,1.6,0.2,2.6,0.5c1,0.3,2,0.6,2.5,0.8c0.5,0.2,0.8,0.6,0.9,1.1c0.5,3.9-0.7,6.8-2.2,8.7
	c-0.6,0.8-1.4,1.5-2.2,2.1c-0.3,0.2-0.6,0.4-0.9,0.5C8.5,14.9,8.2,15,8,15c-0.2,0-0.5-0.1-0.7-0.2c-0.3-0.2-0.6-0.3-0.9-0.5
	c-0.8-0.6-1.6-1.3-2.2-2.1C2.7,10.2,1.5,7.3,2,3.4c0.1-0.5,0.4-0.9,0.9-1.1C3.7,2,4.6,1.7,5.4,1.5z"/>
</svg>
