<?xml version="1.0" encoding="utf-8"?>
<!-- Generator: Adobe Illustrator 25.0.0, SVG Export Plug-In . SVG Version: 6.00 Build 0)  -->
<svg version="1.1" id="Camada_1" xmlns="http://www.w3.org/2000/svg" xmlns:xlink="http://www.w3.org/1999/xlink" x="0px" y="0px"
	 viewBox="0 0 24 24" style="enable-background:new 0 0 24 24;" xml:space="preserve">
<style type="text/css">
	.st0{fill:none;}
	.st1{fill:#3C6BFD;}
</style>
<path class="st0" d="M0,0h24v24H0V0z"/>
<path class="st1" d="M12.5,14.8v2.1c-3.1-1.1-6.6,0.5-7.7,3.7c-0.2,0.6-0.3,1.3-0.3,2l-2,0c0-4.4,3.6-8,8-8
	C11.2,14.5,11.8,14.6,12.5,14.8L12.5,14.8z M10.5,13.5c-3.3,0-6-2.7-6-6s2.7-6,6-6s6,2.7,6,6S13.8,13.5,10.5,13.5z M10.5,11.5
	c2.2,0,4-1.8,4-4s-1.8-4-4-4s-4,1.8-4,4S8.3,11.5,10.5,11.5z M16.5,17.5v-3h2v3h3v2h-3v3h-2v-3h-3v-2H16.5z"/>
</svg>
